<svg width="20" height="20" viewBox="0 0 20 20" fill="none" xmlns="http://www.w3.org/2000/svg">
<g clip-path="url(#clip0_2572_3670)">
<path d="M16.6665 7.50008C17.1085 7.50008 17.5325 7.67568 17.845 7.98824C18.1576 8.3008 18.3332 8.72472 18.3332 9.16675V17.7384C18.3332 17.8554 18.2984 17.9698 18.2334 18.0671C18.1684 18.1644 18.076 18.2402 17.9679 18.285C17.8598 18.3297 17.7409 18.3415 17.6261 18.3186C17.5113 18.2958 17.4059 18.2395 17.3232 18.1567L15.4882 16.3217C15.1757 16.0092 14.7518 15.8335 14.3098 15.8334H8.33317C7.89114 15.8334 7.46722 15.6578 7.15466 15.3453C6.8421 15.0327 6.6665 14.6088 6.6665 14.1667V13.3334M13.3332 8.33342C13.3332 8.77544 13.1576 9.19937 12.845 9.51193C12.5325 9.82449 12.1085 10.0001 11.6665 10.0001H5.68984C5.24785 10.0002 4.82399 10.1758 4.5115 10.4884L2.6765 12.3234C2.59376 12.4061 2.48834 12.4625 2.37358 12.4853C2.25882 12.5081 2.13986 12.4964 2.03176 12.4516C1.92366 12.4069 1.83126 12.331 1.76624 12.2338C1.70123 12.1365 1.66652 12.0221 1.6665 11.9051V3.33341C1.6665 2.89139 1.8421 2.46746 2.15466 2.1549C2.46722 1.84234 2.89114 1.66675 3.33317 1.66675H11.6665C12.1085 1.66675 12.5325 1.84234 12.845 2.1549C13.1576 2.46746 13.3332 2.89139 13.3332 3.33341V8.33342Z" stroke="#EAE3D0" stroke-width="1.5" stroke-linecap="round" stroke-linejoin="round"/>
</g>
<defs>
<clipPath id="clip0_2572_3670">
<rect width="20" height="20" fill="white"/>
</clipPath>
</defs>
</svg>
