<svg width="18" height="18" viewBox="0 0 18 18" fill="none" xmlns="http://www.w3.org/2000/svg">
<path d="M9 14.25V16.5M9 14.25C10.3924 14.25 11.7277 13.6969 12.7123 12.7123C13.6969 11.7277 14.25 10.3924 14.25 9V7.5M9 14.25C7.60761 14.25 6.27226 13.6969 5.28769 12.7123C4.30312 11.7277 3.75 10.3924 3.75 9V7.5M9 1.5C10.2426 1.5 11.25 2.50736 11.25 3.75V9C11.25 10.2426 10.2426 11.25 9 11.25C7.75736 11.25 6.75 10.2426 6.75 9V3.75C6.75 2.50736 7.75736 1.5 9 1.5Z" stroke="#EAE3D0" stroke-width="1.5" stroke-linecap="round" stroke-linejoin="round"/>
</svg>
